<svg width="32" height="39" viewBox="0 0 32 39" fill="none" xmlns="http://www.w3.org/2000/svg">
<g clip-path="url(#clip0_223_6)">
<mask id="mask0_223_6" style="mask-type:alpha" maskUnits="userSpaceOnUse" x="4" y="7" width="19" height="20">
<path fill-rule="evenodd" clip-rule="evenodd" d="M18.8923 9.48727C17.6037 8.74019 16.1068 8.3125 14.5101 8.3125C9.67764 8.3125 5.76013 12.23 5.76013 17.0625C5.76013 21.895 9.67764 25.8125 14.5101 25.8125C17.3474 25.8125 19.8694 24.462 21.4681 22.3688C21.9703 22.3029 22.4547 22.1804 22.9146 22.0079C21.219 24.8833 18.0898 26.8125 14.5101 26.8125C9.12536 26.8125 4.76013 22.4473 4.76013 17.0625C4.76013 11.6777 9.12536 7.3125 14.5101 7.3125C16.708 7.3125 18.736 8.03973 20.3666 9.2667C19.8584 9.28471 19.3648 9.36034 18.8923 9.48727ZM16.5625 10.6491C15.8476 10.383 15.074 10.2375 14.2664 10.2375C10.6316 10.2375 7.68516 13.184 7.68516 16.8188C7.68516 20.4535 10.6316 23.4 14.2664 23.4C15.5994 23.4 16.8398 23.0037 17.8763 22.3225C17.5246 22.1621 17.1895 21.9717 16.8743 21.7545C16.096 22.1666 15.2084 22.4 14.2664 22.4C11.1839 22.4 8.68516 19.9012 8.68516 16.8188C8.68516 13.7363 11.1839 11.2375 14.2664 11.2375C14.7702 11.2375 15.2583 11.3042 15.7226 11.4294C15.9793 11.1457 16.2603 10.8845 16.5625 10.6491Z" fill="black"/>
</mask>
<g mask="url(#mask0_223_6)">
<path d="M18.8923 9.48727L18.3907 10.3524L18.7503 10.5608L19.1517 10.453L18.8923 9.48727ZM21.4681 22.3688L21.3381 21.3773L20.9258 21.4313L20.6734 21.7618L21.4681 22.3688ZM22.9146 22.0079L23.776 22.5159L25.2138 20.0776L22.5634 21.0716L22.9146 22.0079ZM20.3666 9.2667L20.402 10.2661L23.2251 10.166L20.9679 8.46763L20.3666 9.2667ZM16.5625 10.6491L17.1771 11.438L18.5902 10.337L16.9114 9.71198L16.5625 10.6491ZM17.8763 22.3225L18.4256 23.1581L19.9385 22.1637L18.2912 21.4126L17.8763 22.3225ZM16.8743 21.7545L17.4417 20.931L16.9423 20.587L16.4064 20.8707L16.8743 21.7545ZM15.7226 11.4294L15.4623 12.3949L16.0534 12.5542L16.4641 12.1004L15.7226 11.4294ZM14.5101 9.3125C15.926 9.3125 17.2504 9.69129 18.3907 10.3524L19.3938 8.62214C17.9569 7.7891 16.2876 7.3125 14.5101 7.3125V9.3125ZM6.76013 17.0625C6.76013 12.7823 10.2299 9.3125 14.5101 9.3125V7.3125C9.12536 7.3125 4.76013 11.6777 4.76013 17.0625H6.76013ZM14.5101 24.8125C10.2299 24.8125 6.76013 21.3427 6.76013 17.0625H4.76013C4.76013 22.4473 9.12536 26.8125 14.5101 26.8125V24.8125ZM20.6734 21.7618C19.2557 23.618 17.0226 24.8125 14.5101 24.8125V26.8125C17.6723 26.8125 20.483 25.306 22.2628 22.9757L20.6734 21.7618ZM22.5634 21.0716C22.174 21.2176 21.7638 21.3214 21.3381 21.3773L21.5982 23.3603C22.1768 23.2844 22.7353 23.1432 23.2657 22.9442L22.5634 21.0716ZM22.0532 21.5C20.53 24.0831 17.7214 25.8125 14.5101 25.8125V27.8125C18.4582 27.8125 21.908 25.6836 23.776 22.5159L22.0532 21.5ZM14.5101 25.8125C9.67764 25.8125 5.76013 21.895 5.76013 17.0625H3.76013C3.76013 22.9996 8.57307 27.8125 14.5101 27.8125V25.8125ZM5.76013 17.0625C5.76013 12.23 9.67764 8.3125 14.5101 8.3125V6.3125C8.57307 6.3125 3.76013 11.1254 3.76013 17.0625H5.76013ZM14.5101 8.3125C16.4837 8.3125 18.3021 8.96471 19.7654 10.0658L20.9679 8.46763C19.1699 7.11476 16.9322 6.3125 14.5101 6.3125V8.3125ZM19.1517 10.453C19.5517 10.3456 19.9702 10.2814 20.402 10.2661L20.3312 8.26733C19.7466 8.28804 19.178 8.37509 18.6329 8.5215L19.1517 10.453ZM14.2664 11.2375C14.9531 11.2375 15.6086 11.3611 16.2136 11.5863L16.9114 9.71198C16.0866 9.40488 15.1949 9.2375 14.2664 9.2375V11.2375ZM8.68516 16.8188C8.68516 13.7363 11.1839 11.2375 14.2664 11.2375V9.2375C10.0794 9.2375 6.68516 12.6317 6.68516 16.8188H8.68516ZM14.2664 22.4C11.1839 22.4 8.68516 19.9012 8.68516 16.8188H6.68516C6.68516 21.0058 10.0794 24.4 14.2664 24.4V22.4ZM17.3271 21.4868C16.4487 22.0641 15.3983 22.4 14.2664 22.4V24.4C15.8005 24.4 17.231 23.9433 18.4256 23.1581L17.3271 21.4868ZM16.3069 22.5779C16.6699 22.8281 17.056 23.0475 17.4614 23.2323L18.2912 21.4126C17.9933 21.2767 17.7091 21.1153 17.4417 20.931L16.3069 22.5779ZM14.2664 23.4C15.3755 23.4 16.4232 23.1248 17.3422 22.6382L16.4064 20.8707C15.7687 21.2084 15.0414 21.4 14.2664 21.4V23.4ZM7.68516 16.8188C7.68516 20.4535 10.6316 23.4 14.2664 23.4V21.4C11.7362 21.4 9.68516 19.3489 9.68516 16.8188H7.68516ZM14.2664 10.2375C10.6316 10.2375 7.68516 13.184 7.68516 16.8188H9.68516C9.68516 14.2886 11.7362 12.2375 14.2664 12.2375V10.2375ZM15.9828 10.4638C15.4345 10.316 14.8588 10.2375 14.2664 10.2375V12.2375C14.6815 12.2375 15.0822 12.2925 15.4623 12.3949L15.9828 10.4638ZM16.4641 12.1004C16.682 11.8595 16.9206 11.6378 17.1771 11.438L15.9479 9.86029C15.6001 10.1313 15.2766 10.4319 14.9811 10.7584L16.4641 12.1004Z" fill="#262524"/>
</g>
<path d="M20.604 21.4374C23.9625 21.4374 26.6852 18.7148 26.6852 15.3562C26.6852 11.9976 23.9625 9.27495 20.604 9.27495C17.2454 9.27495 14.5227 11.9976 14.5227 15.3562C14.5227 18.7148 17.2454 21.4374 20.604 21.4374Z" stroke="#262524"/>
<path d="M20.8477 19.4875C22.9947 19.4875 24.7352 17.747 24.7352 15.6C24.7352 13.453 22.9947 11.7125 20.8477 11.7125C18.7007 11.7125 16.9602 13.453 16.9602 15.6C16.9602 17.747 18.7007 19.4875 20.8477 19.4875Z" stroke="#262524"/>
<path d="M11.5201 15.125H20.4253C24.2708 15.125 27.2757 18.4453 26.893 22.2718L25.8555 32.6468C25.5233 35.9696 22.7272 38.5 19.3878 38.5H12.5576C9.21828 38.5 6.4222 35.9696 6.08992 32.6468L5.05242 22.2718C4.66977 18.4453 7.67462 15.125 11.5201 15.125Z" fill="#F1E2D2" stroke="#262524"/>
<path d="M7.17642 17.2774L0.416016 27.418" stroke="#262524"/>
<path d="M31.7604 27.1406L25 17" stroke="#262524"/>
<path d="M11.8347 15.125H21.0461C24.1628 15.125 26.3358 18.2168 25.2801 21.1492L23.4213 26.3125H8.03661L6.65978 22.488C5.36949 18.9038 8.02534 15.125 11.8347 15.125Z" stroke="#262524"/>
<path d="M23.7231 0.198929L19.844 9.14405" stroke="#262524"/>
<path d="M25.6495 1.61435L19.629 9.01876" stroke="#262524"/>
</g>
<defs>
<clipPath id="clip0_223_6">
<rect width="32" height="39" fill="white"/>
</clipPath>
</defs>
</svg>
