<svg width="32" height="39" viewBox="0 0 32 39" fill="none" xmlns="http://www.w3.org/2000/svg">
<g clip-path="url(#clip0_265_158)">
<mask id="mask0_265_158" style="mask-type:alpha" maskUnits="userSpaceOnUse" x="4" y="7" width="19" height="20">
<path fill-rule="evenodd" clip-rule="evenodd" d="M18.892 9.48727C17.6034 8.74019 16.1065 8.3125 14.5098 8.3125C9.67728 8.3125 5.75977 12.23 5.75977 17.0625C5.75977 21.895 9.67728 25.8125 14.5098 25.8125C17.3471 25.8125 19.8691 24.462 21.4678 22.3688C21.97 22.3029 22.4544 22.1804 22.9143 22.0079C21.2187 24.8833 18.0895 26.8125 14.5098 26.8125C9.125 26.8125 4.75977 22.4473 4.75977 17.0625C4.75977 11.6777 9.125 7.3125 14.5098 7.3125C16.7077 7.3125 18.7357 8.03973 20.3663 9.2667C19.8581 9.28471 19.3645 9.36034 18.892 9.48727ZM16.5622 10.6491C15.8473 10.383 15.0737 10.2375 14.2661 10.2375C10.6313 10.2375 7.6848 13.184 7.6848 16.8188C7.6848 20.4535 10.6313 23.4 14.2661 23.4C15.5991 23.4 16.8395 23.0037 17.876 22.3225C17.5243 22.1621 17.1892 21.9717 16.874 21.7545C16.0957 22.1666 15.2081 22.4 14.2661 22.4C11.1836 22.4 8.6848 19.9012 8.6848 16.8188C8.6848 13.7363 11.1836 11.2375 14.2661 11.2375C14.7699 11.2375 15.258 11.3042 15.7223 11.4294C15.979 11.1457 16.26 10.8845 16.5622 10.6491Z" fill="black"/>
</mask>
<g mask="url(#mask0_265_158)">
<path d="M18.892 9.48727L18.3904 10.3524L18.75 10.5608L19.1514 10.453L18.892 9.48727ZM21.4678 22.3688L21.3378 21.3773L20.9255 21.4313L20.6731 21.7618L21.4678 22.3688ZM22.9143 22.0079L23.7757 22.5159L25.2135 20.0776L22.5631 21.0716L22.9143 22.0079ZM20.3663 9.2667L20.4017 10.2661L23.2248 10.166L20.9676 8.46763L20.3663 9.2667ZM16.5622 10.6491L17.1768 11.438L18.5899 10.337L16.9111 9.71198L16.5622 10.6491ZM17.876 22.3225L18.4253 23.1581L19.9382 22.1637L18.2909 21.4126L17.876 22.3225ZM16.874 21.7545L17.4414 20.931L16.942 20.587L16.4061 20.8707L16.874 21.7545ZM15.7223 11.4294L15.462 12.3949L16.0531 12.5542L16.4638 12.1004L15.7223 11.4294ZM14.5098 9.3125C15.9257 9.3125 17.2501 9.69129 18.3904 10.3524L19.3935 8.62214C17.9566 7.7891 16.2873 7.3125 14.5098 7.3125V9.3125ZM6.75977 17.0625C6.75977 12.7823 10.2296 9.3125 14.5098 9.3125V7.3125C9.125 7.3125 4.75977 11.6777 4.75977 17.0625H6.75977ZM14.5098 24.8125C10.2296 24.8125 6.75977 21.3427 6.75977 17.0625H4.75977C4.75977 22.4473 9.125 26.8125 14.5098 26.8125V24.8125ZM20.6731 21.7618C19.2554 23.618 17.0223 24.8125 14.5098 24.8125V26.8125C17.672 26.8125 20.4827 25.306 22.2625 22.9757L20.6731 21.7618ZM22.5631 21.0716C22.1737 21.2176 21.7635 21.3214 21.3378 21.3773L21.5979 23.3603C22.1765 23.2844 22.735 23.1432 23.2654 22.9442L22.5631 21.0716ZM22.0529 21.5C20.5297 24.0831 17.7211 25.8125 14.5098 25.8125V27.8125C18.4579 27.8125 21.9077 25.6836 23.7757 22.5159L22.0529 21.5ZM14.5098 25.8125C9.67728 25.8125 5.75977 21.895 5.75977 17.0625H3.75977C3.75977 22.9996 8.57271 27.8125 14.5098 27.8125V25.8125ZM5.75977 17.0625C5.75977 12.23 9.67728 8.3125 14.5098 8.3125V6.3125C8.57271 6.3125 3.75977 11.1254 3.75977 17.0625H5.75977ZM14.5098 8.3125C16.4834 8.3125 18.3018 8.96471 19.7651 10.0658L20.9676 8.46763C19.1696 7.11476 16.9319 6.3125 14.5098 6.3125V8.3125ZM19.1514 10.453C19.5514 10.3456 19.9699 10.2814 20.4017 10.2661L20.3309 8.26733C19.7463 8.28804 19.1777 8.37509 18.6326 8.5215L19.1514 10.453ZM14.2661 11.2375C14.9528 11.2375 15.6083 11.3611 16.2133 11.5863L16.9111 9.71198C16.0863 9.40488 15.1946 9.2375 14.2661 9.2375V11.2375ZM8.6848 16.8188C8.6848 13.7363 11.1836 11.2375 14.2661 11.2375V9.2375C10.0791 9.2375 6.6848 12.6317 6.6848 16.8188H8.6848ZM14.2661 22.4C11.1836 22.4 8.6848 19.9012 8.6848 16.8188H6.6848C6.6848 21.0058 10.0791 24.4 14.2661 24.4V22.4ZM17.3268 21.4868C16.4484 22.0641 15.398 22.4 14.2661 22.4V24.4C15.8002 24.4 17.2307 23.9433 18.4253 23.1581L17.3268 21.4868ZM16.3066 22.5779C16.6696 22.8281 17.0557 23.0475 17.4611 23.2323L18.2909 21.4126C17.993 21.2767 17.7088 21.1153 17.4414 20.931L16.3066 22.5779ZM14.2661 23.4C15.3752 23.4 16.4229 23.1248 17.3419 22.6382L16.4061 20.8707C15.7684 21.2084 15.0411 21.4 14.2661 21.4V23.4ZM7.6848 16.8188C7.6848 20.4535 10.6313 23.4 14.2661 23.4V21.4C11.7359 21.4 9.6848 19.3489 9.6848 16.8188H7.6848ZM14.2661 10.2375C10.6313 10.2375 7.6848 13.184 7.6848 16.8188H9.6848C9.6848 14.2886 11.7359 12.2375 14.2661 12.2375V10.2375ZM15.9825 10.4638C15.4342 10.316 14.8585 10.2375 14.2661 10.2375V12.2375C14.6812 12.2375 15.0819 12.2925 15.462 12.3949L15.9825 10.4638ZM16.4638 12.1004C16.6817 11.8595 16.9203 11.6378 17.1768 11.438L15.9476 9.86029C15.5998 10.1313 15.2763 10.4319 14.9808 10.7584L16.4638 12.1004Z" fill="#262524"/>
</g>
<path d="M20.6037 21.4374C23.9623 21.4374 26.685 18.7148 26.685 15.3562C26.685 11.9976 23.9623 9.27495 20.6037 9.27495C17.2451 9.27495 14.5225 11.9976 14.5225 15.3562C14.5225 18.7148 17.2451 21.4374 20.6037 21.4374Z" stroke="#262524"/>
<path d="M20.8475 19.4875C22.9945 19.4875 24.735 17.747 24.735 15.6C24.735 13.453 22.9945 11.7125 20.8475 11.7125C18.7005 11.7125 16.96 13.453 16.96 15.6C16.96 17.747 18.7005 19.4875 20.8475 19.4875Z" stroke="#262524"/>
<path d="M11.5201 15.125H20.4253C24.2708 15.125 27.2757 18.4453 26.893 22.2718L25.8555 32.6468C25.5233 35.9696 22.7272 38.5 19.3878 38.5H12.5576C9.21828 38.5 6.4222 35.9696 6.08992 32.6468L5.05242 22.2718C4.66977 18.4453 7.67462 15.125 11.5201 15.125Z" fill="#BF3C30" stroke="#262524"/>
<path d="M7.17642 17.2774L0.416016 27.418" stroke="#262524"/>
<path d="M31.7604 27.1406L25 17" stroke="#262524"/>
<path d="M11.8348 15.125H21.0462C24.1629 15.125 26.3359 18.2168 25.2802 21.1492L23.4214 26.3125H8.03673L6.6599 22.488C5.36961 18.9038 8.02546 15.125 11.8348 15.125Z" stroke="#262524"/>
<path d="M23.7229 0.198929L19.8438 9.14405" stroke="#262524"/>
<path d="M25.6494 1.61435L19.6289 9.01876" stroke="#262524"/>
</g>
<defs>
<clipPath id="clip0_265_158">
<rect width="32" height="39" fill="white"/>
</clipPath>
</defs>
</svg>
