<svg width="32" height="39" viewBox="0 0 32 39" fill="none" xmlns="http://www.w3.org/2000/svg">
<g clip-path="url(#clip0_126_879)">
<mask id="mask0_126_879" style="mask-type:alpha" maskUnits="userSpaceOnUse" x="4" y="7" width="19" height="20">
<path fill-rule="evenodd" clip-rule="evenodd" d="M18.8924 9.48727C17.6038 8.74019 16.1069 8.3125 14.5102 8.3125C9.6777 8.3125 5.76019 12.23 5.76019 17.0625C5.76019 21.895 9.6777 25.8125 14.5102 25.8125C17.3475 25.8125 19.8695 24.462 21.4682 22.3688C21.9704 22.3029 22.4548 22.1804 22.9147 22.0079C21.2191 24.8833 18.0899 26.8125 14.5102 26.8125C9.12542 26.8125 4.76019 22.4473 4.76019 17.0625C4.76019 11.6777 9.12542 7.3125 14.5102 7.3125C16.7081 7.3125 18.7361 8.03973 20.3667 9.2667C19.8585 9.28471 19.3649 9.36034 18.8924 9.48727ZM16.5626 10.6491C15.8477 10.383 15.0741 10.2375 14.2665 10.2375C10.6317 10.2375 7.68522 13.184 7.68522 16.8188C7.68522 20.4535 10.6317 23.4 14.2665 23.4C15.5995 23.4 16.8399 23.0037 17.8764 22.3225C17.5247 22.1621 17.1896 21.9717 16.8744 21.7545C16.0961 22.1666 15.2085 22.4 14.2665 22.4C11.184 22.4 8.68522 19.9012 8.68522 16.8188C8.68522 13.7363 11.184 11.2375 14.2665 11.2375C14.7703 11.2375 15.2584 11.3042 15.7227 11.4294C15.9794 11.1457 16.2604 10.8845 16.5626 10.6491Z" fill="black"/>
</mask>
<g mask="url(#mask0_126_879)">
<path d="M18.8924 9.48727L18.3908 10.3524L18.7504 10.5608L19.1518 10.453L18.8924 9.48727ZM21.4682 22.3688L21.3382 21.3773L20.9259 21.4313L20.6735 21.7618L21.4682 22.3688ZM22.9147 22.0079L23.7761 22.5159L25.2139 20.0776L22.5635 21.0716L22.9147 22.0079ZM20.3667 9.2667L20.4021 10.2661L23.2252 10.166L20.968 8.46763L20.3667 9.2667ZM16.5626 10.6491L17.1772 11.438L18.5903 10.337L16.9115 9.71198L16.5626 10.6491ZM17.8764 22.3225L18.4257 23.1581L19.9386 22.1637L18.2913 21.4126L17.8764 22.3225ZM16.8744 21.7545L17.4418 20.931L16.9424 20.587L16.4065 20.8707L16.8744 21.7545ZM15.7227 11.4294L15.4624 12.3949L16.0535 12.5542L16.4642 12.1004L15.7227 11.4294ZM14.5102 9.3125C15.9261 9.3125 17.2505 9.69129 18.3908 10.3524L19.3939 8.62214C17.957 7.7891 16.2877 7.3125 14.5102 7.3125V9.3125ZM6.76019 17.0625C6.76019 12.7823 10.23 9.3125 14.5102 9.3125V7.3125C9.12542 7.3125 4.76019 11.6777 4.76019 17.0625H6.76019ZM14.5102 24.8125C10.23 24.8125 6.76019 21.3427 6.76019 17.0625H4.76019C4.76019 22.4473 9.12542 26.8125 14.5102 26.8125V24.8125ZM20.6735 21.7618C19.2558 23.618 17.0227 24.8125 14.5102 24.8125V26.8125C17.6724 26.8125 20.4831 25.306 22.2629 22.9757L20.6735 21.7618ZM22.5635 21.0716C22.1741 21.2176 21.7639 21.3214 21.3382 21.3773L21.5983 23.3603C22.1769 23.2844 22.7354 23.1432 23.2658 22.9442L22.5635 21.0716ZM22.0533 21.5C20.5301 24.0831 17.7215 25.8125 14.5102 25.8125V27.8125C18.4583 27.8125 21.9081 25.6836 23.7761 22.5159L22.0533 21.5ZM14.5102 25.8125C9.6777 25.8125 5.76019 21.895 5.76019 17.0625H3.76019C3.76019 22.9996 8.57313 27.8125 14.5102 27.8125V25.8125ZM5.76019 17.0625C5.76019 12.23 9.6777 8.3125 14.5102 8.3125V6.3125C8.57313 6.3125 3.76019 11.1254 3.76019 17.0625H5.76019ZM14.5102 8.3125C16.4838 8.3125 18.3022 8.96471 19.7655 10.0658L20.968 8.46763C19.17 7.11476 16.9323 6.3125 14.5102 6.3125V8.3125ZM19.1518 10.453C19.5518 10.3456 19.9703 10.2814 20.4021 10.2661L20.3313 8.26733C19.7467 8.28804 19.1781 8.37509 18.633 8.5215L19.1518 10.453ZM14.2665 11.2375C14.9532 11.2375 15.6087 11.3611 16.2137 11.5863L16.9115 9.71198C16.0867 9.40488 15.195 9.2375 14.2665 9.2375V11.2375ZM8.68522 16.8188C8.68522 13.7363 11.184 11.2375 14.2665 11.2375V9.2375C10.0795 9.2375 6.68522 12.6317 6.68522 16.8188H8.68522ZM14.2665 22.4C11.184 22.4 8.68522 19.9012 8.68522 16.8188H6.68522C6.68522 21.0058 10.0795 24.4 14.2665 24.4V22.4ZM17.3272 21.4868C16.4488 22.0641 15.3984 22.4 14.2665 22.4V24.4C15.8006 24.4 17.2311 23.9433 18.4257 23.1581L17.3272 21.4868ZM16.307 22.5779C16.67 22.8281 17.0561 23.0475 17.4615 23.2323L18.2913 21.4126C17.9934 21.2767 17.7092 21.1153 17.4418 20.931L16.307 22.5779ZM14.2665 23.4C15.3756 23.4 16.4233 23.1248 17.3423 22.6382L16.4065 20.8707C15.7688 21.2084 15.0415 21.4 14.2665 21.4V23.4ZM7.68522 16.8188C7.68522 20.4535 10.6317 23.4 14.2665 23.4V21.4C11.7363 21.4 9.68522 19.3489 9.68522 16.8188H7.68522ZM14.2665 10.2375C10.6317 10.2375 7.68522 13.184 7.68522 16.8188H9.68522C9.68522 14.2886 11.7363 12.2375 14.2665 12.2375V10.2375ZM15.9829 10.4638C15.4346 10.316 14.8589 10.2375 14.2665 10.2375V12.2375C14.6816 12.2375 15.0823 12.2925 15.4624 12.3949L15.9829 10.4638ZM16.4642 12.1004C16.6821 11.8595 16.9207 11.6378 17.1772 11.438L15.948 9.86029C15.6002 10.1313 15.2767 10.4319 14.9812 10.7584L16.4642 12.1004Z" fill="#262524"/>
</g>
<path d="M20.604 21.4374C23.9626 21.4374 26.6853 18.7148 26.6853 15.3562C26.6853 11.9976 23.9626 9.27495 20.604 9.27495C17.2454 9.27495 14.5228 11.9976 14.5228 15.3562C14.5228 18.7148 17.2454 21.4374 20.604 21.4374Z" stroke="#262524"/>
<path d="M20.8477 19.4875C22.9947 19.4875 24.7352 17.747 24.7352 15.6C24.7352 13.453 22.9947 11.7125 20.8477 11.7125C18.7007 11.7125 16.9602 13.453 16.9602 15.6C16.9602 17.747 18.7007 19.4875 20.8477 19.4875Z" stroke="#262524"/>
<path d="M11.5201 15.125H20.4253C24.2708 15.125 27.2757 18.4453 26.893 22.2718L25.8555 32.6468C25.5233 35.9696 22.7272 38.5 19.3878 38.5H12.5576C9.21822 38.5 6.42214 35.9696 6.08986 32.6468L5.05236 22.2718C4.66971 18.4453 7.67456 15.125 11.5201 15.125Z" fill="#E3DCC3" stroke="#262524"/>
<path d="M7.17648 17.2774L0.416077 27.418" stroke="#262524"/>
<path d="M31.7604 27.1406L25 17" stroke="#262524"/>
<path d="M11.8347 15.125H21.0461C24.1628 15.125 26.3358 18.2168 25.2801 21.1492L23.4213 26.3125H8.03661L6.65978 22.488C5.36949 18.9038 8.02534 15.125 11.8347 15.125Z" stroke="#262524"/>
<path d="M23.7231 0.198929L19.844 9.14405" stroke="#262524"/>
<path d="M25.6495 1.61435L19.629 9.01876" stroke="#262524"/>
</g>
<defs>
<clipPath id="clip0_126_879">
<rect width="32" height="39" fill="white"/>
</clipPath>
</defs>
</svg>
