<svg width="165" height="11" viewBox="0 0 165 11" fill="none" xmlns="http://www.w3.org/2000/svg">
<path d="M25.9012 11C23.4175 11 22.0592 8.451 20.7459 5.986C19.7012 4.026 18.621 2 17.2674 2C15.9129 2 14.8337 4.026 13.789 5.986C12.4748 8.451 11.1164 11 8.63372 11C6.09157 11 4.93753 8.294 3.91971 5.906C2.91436 3.546 2.16419 2 0.959302 2C0.70488 2 0.460877 1.89464 0.280973 1.70711C0.101069 1.51957 0 1.26522 0 1C0 0.734784 0.101069 0.48043 0.280973 0.292893C0.460877 0.105357 0.70488 0 0.959302 0C3.50145 0 4.65549 2.706 5.67331 5.094C6.67866 7.453 7.42884 9 8.63372 9C9.98826 9 11.0675 6.974 12.1122 5.014C13.4264 2.549 14.7848 0 17.2674 0C19.7511 0 21.1094 2.549 22.4227 5.014C23.4674 6.974 24.5476 9 25.9012 9C27.106 9 27.8553 7.453 28.8616 5.094C29.8794 2.706 31.0344 0 33.5756 0C33.83 0 34.074 0.105357 34.2539 0.292893C34.4338 0.48043 34.5349 0.734784 34.5349 1C34.5349 1.26522 34.4338 1.51957 34.2539 1.70711C34.074 1.89464 33.83 2 33.5756 2C32.3707 2 31.6215 3.546 30.6152 5.906C29.5974 8.294 28.4424 11 25.9012 11Z" fill="#292F33"/>
<path d="M58.5174 11C56.0338 11 54.6754 8.451 53.3621 5.986C52.3175 4.026 51.2373 2 49.8837 2C48.5292 2 47.45 4.026 46.4053 5.986C45.091 8.451 43.7327 11 41.25 11C38.7078 11 37.5538 8.294 36.536 5.906C35.5306 3.546 34.7805 2 33.5756 2C33.3212 2 33.0772 1.89464 32.8973 1.70711C32.7173 1.51957 32.6163 1.26522 32.6163 1C32.6163 0.734784 32.7173 0.48043 32.8973 0.292893C33.0772 0.105357 33.3212 0 33.5756 0C36.1177 0 37.2718 2.706 38.2896 5.094C39.2949 7.453 40.0451 9 41.25 9C42.6045 9 43.6837 6.974 44.7284 5.014C46.0427 2.549 47.401 0 49.8837 0C52.3674 0 53.7257 2.549 55.039 5.014C56.0837 6.974 57.1639 9 58.5174 9C59.7223 9 60.4715 7.453 61.4778 5.094C62.4957 2.706 63.6507 0 66.1919 0C66.4463 0 66.6903 0.105357 66.8702 0.292893C67.0501 0.48043 67.1512 0.734784 67.1512 1C67.1512 1.26522 67.0501 1.51957 66.8702 1.70711C66.6903 1.89464 66.4463 2 66.1919 2C64.987 2 64.2378 3.546 63.2315 5.906C62.2136 8.294 61.0586 11 58.5174 11Z" fill="#292F33"/>
<path d="M91.1337 11C88.6501 11 87.2917 8.451 85.9784 5.986C84.9338 4.026 83.8536 2 82.5 2C81.1455 2 80.0662 4.026 79.0216 5.986C77.7073 8.451 76.349 11 73.8663 11C71.3241 11 70.1701 8.294 69.1523 5.906C68.1469 3.546 67.3967 2 66.1919 2C65.9374 2 65.6934 1.89464 65.5135 1.70711C65.3336 1.51957 65.2326 1.26522 65.2326 1C65.2326 0.734784 65.3336 0.48043 65.5135 0.292893C65.6934 0.105357 65.9374 0 66.1919 0C68.734 0 69.888 2.706 70.9059 5.094C71.9112 7.453 72.6614 9 73.8663 9C75.2208 9 76.3 6.974 77.3447 5.014C78.659 2.549 80.0173 0 82.5 0C84.9836 0 86.342 2.549 87.6553 5.014C88.7 6.974 89.7801 9 91.1337 9C92.3386 9 93.0878 7.453 94.0941 5.094C95.1119 2.706 96.2669 0 98.8081 0C99.0626 0 99.3066 0.105357 99.4865 0.292893C99.6664 0.48043 99.7674 0.734784 99.7674 1C99.7674 1.26522 99.6664 1.51957 99.4865 1.70711C99.3066 1.89464 99.0626 2 98.8081 2C97.6032 2 96.854 3.546 95.8477 5.906C94.8299 8.294 93.6749 11 91.1337 11Z" fill="#292F33"/>
<path d="M123.75 11C121.266 11 119.908 8.451 118.595 5.986C117.55 4.026 116.47 2 115.116 2C113.762 2 112.683 4.026 111.638 5.986C110.324 8.451 108.965 11 106.483 11C103.94 11 102.786 8.294 101.769 5.906C100.763 3.546 100.013 2 98.8081 2C98.5537 2 98.3097 1.89464 98.1298 1.70711C97.9499 1.51957 97.8488 1.26522 97.8488 1C97.8488 0.734784 97.9499 0.48043 98.1298 0.292893C98.3097 0.105357 98.5537 0 98.8081 0C101.35 0 102.504 2.706 103.522 5.094C104.527 7.453 105.278 9 106.483 9C107.837 9 108.916 6.974 109.961 5.014C111.275 2.549 112.634 0 115.116 0C117.6 0 118.958 2.549 120.272 5.014C121.316 6.974 122.396 9 123.75 9C124.955 9 125.704 7.453 126.71 5.094C127.728 2.706 128.883 0 131.424 0C131.679 0 131.923 0.105357 132.103 0.292893C132.283 0.48043 132.384 0.734784 132.384 1C132.384 1.26522 132.283 1.51957 132.103 1.70711C131.923 1.89464 131.679 2 131.424 2C130.22 2 129.47 3.546 128.464 5.906C127.446 8.294 126.291 11 123.75 11Z" fill="#292F33"/>
<path d="M156.366 11C153.883 11 152.524 8.451 151.211 5.986C150.166 4.026 149.086 2 147.733 2C146.378 2 145.299 4.026 144.254 5.986C142.94 8.451 141.582 11 139.099 11C136.557 11 135.403 8.294 134.385 5.906C133.379 3.546 132.629 2 131.424 2C131.17 2 130.926 1.89464 130.746 1.70711C130.566 1.51957 130.465 1.26522 130.465 1C130.465 0.734784 130.566 0.48043 130.746 0.292893C130.926 0.105357 131.17 0 131.424 0C133.967 0 135.121 2.706 136.138 5.094C137.144 7.453 137.894 9 139.099 9C140.453 9 141.533 6.974 142.577 5.014C143.892 2.549 145.25 0 147.733 0C150.216 0 151.575 2.549 152.888 5.014C153.933 6.974 155.013 9 156.366 9C157.571 9 158.32 7.453 159.327 5.094C160.344 2.706 161.499 0 164.041 0C164.295 0 164.539 0.105357 164.719 0.292893C164.899 0.48043 165 0.734784 165 1C165 1.26522 164.899 1.51957 164.719 1.70711C164.539 1.89464 164.295 2 164.041 2C162.836 2 162.087 3.546 161.08 5.906C160.062 8.294 158.907 11 156.366 11Z" fill="#292F33"/>
</svg>
