<svg width="68" height="68" viewBox="0 0 68 68" fill="none" xmlns="http://www.w3.org/2000/svg">
<rect x="1.5" y="1.5" width="65" height="65" rx="5.5" stroke="#262524" stroke-width="3"/>
<path d="M15.8311 18.02L17.8711 12.72H22.2711L17.8711 21.42V27H13.7711V21.54L9.37109 12.72H13.8111L15.8311 18.02ZM33.7084 27L33.2284 24.32H29.1684L28.6484 27H24.1484L28.3284 12.66H33.9284L38.1684 27H33.7084ZM31.8884 18.78C31.8218 18.46 31.7418 18.1 31.6484 17.7C31.5551 17.3 31.4618 16.8867 31.3684 16.46C31.2884 16.02 31.2218 15.6067 31.1684 15.22C31.1151 15.6067 31.0484 16.0133 30.9684 16.44C30.8884 16.8667 30.8084 17.28 30.7284 17.68C30.6484 18.08 30.5684 18.44 30.4884 18.76L29.9284 21.16H32.4484L31.8884 18.78ZM48.5519 27L45.9719 16.52H45.8919C45.9185 16.7867 45.9452 17.1467 45.9719 17.6C45.9985 18.0533 46.0252 18.5467 46.0519 19.08C46.0785 19.6 46.0919 20.1067 46.0919 20.6V27H42.4919V12.72H48.3519L50.4519 21.52H50.5119L52.4519 12.72H58.3119V27H54.5919V20.54C54.5919 20.0867 54.5985 19.6067 54.6119 19.1C54.6252 18.58 54.6385 18.0933 54.6519 17.64C54.6785 17.1733 54.7052 16.8067 54.7319 16.54H54.6519L52.2719 27H48.5519ZM15.8311 46.02L17.8711 40.72H22.2711L17.8711 49.42V55H13.7711V49.54L9.37109 40.72H13.8111L15.8311 46.02ZM33.7084 55L33.2284 52.32H29.1684L28.6484 55H24.1484L28.3284 40.66H33.9284L38.1684 55H33.7084ZM31.8884 46.78C31.8218 46.46 31.7418 46.1 31.6484 45.7C31.5551 45.3 31.4618 44.8867 31.3684 44.46C31.2884 44.02 31.2218 43.6067 31.1684 43.22C31.1151 43.6067 31.0484 44.0133 30.9684 44.44C30.8884 44.8667 30.8084 45.28 30.7284 45.68C30.6484 46.08 30.5684 46.44 30.4884 46.76L29.9284 49.16H32.4484L31.8884 46.78ZM48.5519 55L45.9719 44.52H45.8919C45.9185 44.7867 45.9452 45.1467 45.9719 45.6C45.9985 46.0533 46.0252 46.5467 46.0519 47.08C46.0785 47.6 46.0919 48.1067 46.0919 48.6V55H42.4919V40.72H48.3519L50.4519 49.52H50.5119L52.4519 40.72H58.3119V55H54.5919V48.54C54.5919 48.0867 54.5985 47.6067 54.6119 47.1C54.6252 46.58 54.6385 46.0933 54.6519 45.64C54.6785 45.1733 54.7052 44.8067 54.7319 44.54H54.6519L52.2719 55H48.5519Z" fill="#BF3C30"/>
</svg>
