<svg width="55" height="55" viewBox="0 0 55 55" fill="none" xmlns="http://www.w3.org/2000/svg">
<rect x="1.5" y="1.5" width="52" height="52" rx="5.5" stroke="#262524" stroke-width="3"/>
<path d="M12.5649 14.816L14.1969 10.576H17.7169L14.1969 17.536V22H10.9169V17.632L7.39688 10.576H10.9489L12.5649 14.816ZM26.8668 22L26.4828 19.856H23.2348L22.8188 22H19.2188L22.5628 10.528H27.0428L30.4348 22H26.8668ZM25.4108 15.424C25.3574 15.168 25.2934 14.88 25.2188 14.56C25.1441 14.24 25.0694 13.9093 24.9948 13.568C24.9308 13.216 24.8774 12.8853 24.8348 12.576C24.7921 12.8853 24.7388 13.2107 24.6748 13.552C24.6108 13.8933 24.5468 14.224 24.4828 14.544C24.4188 14.864 24.3548 15.152 24.2908 15.408L23.8428 17.328H25.8588L25.4108 15.424ZM38.7415 22L36.6775 13.616H36.6135C36.6348 13.8293 36.6562 14.1173 36.6775 14.48C36.6988 14.8427 36.7202 15.2373 36.7415 15.664C36.7628 16.08 36.7735 16.4853 36.7735 16.88V22H33.8935V10.576H38.5815L40.2615 17.616H40.3095L41.8615 10.576H46.5495V22H43.5735V16.832C43.5735 16.4693 43.5788 16.0853 43.5895 15.68C43.6002 15.264 43.6108 14.8747 43.6215 14.512C43.6428 14.1387 43.6642 13.8453 43.6855 13.632H43.6215L41.7175 22H38.7415ZM12.5649 37.816L14.1969 33.576H17.7169L14.1969 40.536V45H10.9169V40.632L7.39688 33.576H10.9489L12.5649 37.816ZM26.8668 45L26.4828 42.856H23.2348L22.8188 45H19.2188L22.5628 33.528H27.0428L30.4348 45H26.8668ZM25.4108 38.424C25.3574 38.168 25.2934 37.88 25.2188 37.56C25.1441 37.24 25.0694 36.9093 24.9948 36.568C24.9308 36.216 24.8774 35.8853 24.8348 35.576C24.7921 35.8853 24.7388 36.2107 24.6748 36.552C24.6108 36.8933 24.5468 37.224 24.4828 37.544C24.4188 37.864 24.3548 38.152 24.2908 38.408L23.8428 40.328H25.8588L25.4108 38.424ZM38.7415 45L36.6775 36.616H36.6135C36.6348 36.8293 36.6562 37.1173 36.6775 37.48C36.6988 37.8427 36.7202 38.2373 36.7415 38.664C36.7628 39.08 36.7735 39.4853 36.7735 39.88V45H33.8935V33.576H38.5815L40.2615 40.616H40.3095L41.8615 33.576H46.5495V45H43.5735V39.832C43.5735 39.4693 43.5788 39.0853 43.5895 38.68C43.6002 38.264 43.6108 37.8747 43.6215 37.512C43.6428 37.1387 43.6642 36.8453 43.6855 36.632H43.6215L41.7175 45H38.7415Z" fill="#BF3C30"/>
</svg>
