<svg width="40" height="40" viewBox="0 0 40 40" fill="none" xmlns="http://www.w3.org/2000/svg">
<g clip-path="url(#clip0_233_427)">
<path d="M12.5836 36.25C27.6742 36.25 35.9305 23.7446 35.9305 12.9032C35.9305 12.5516 35.9227 12.1922 35.907 11.8407C37.5131 10.6792 38.8992 9.24048 40 7.59222C38.5042 8.25773 36.9161 8.69236 35.2898 8.88129C37.0021 7.85491 38.2842 6.24251 38.8984 4.34301C37.2876 5.29766 35.526 5.97108 33.6891 6.33441C32.4514 5.01933 30.815 4.14859 29.0328 3.85681C27.2506 3.56504 25.422 3.86848 23.8296 4.72022C22.2372 5.57197 20.9697 6.92457 20.2231 8.56891C19.4765 10.2133 19.2924 12.0578 19.6992 13.8172C16.4375 13.6535 13.2466 12.8062 10.3333 11.3302C7.42004 9.85422 4.84949 7.78246 2.78828 5.24926C1.74067 7.05547 1.42009 9.1928 1.89172 11.2269C2.36334 13.261 3.59177 15.0391 5.32734 16.2C4.02438 16.1587 2.74996 15.8079 1.60938 15.1766V15.2782C1.60821 17.1736 2.2635 19.011 3.46385 20.478C4.6642 21.945 6.33554 22.951 8.19375 23.325C6.98676 23.6553 5.71997 23.7034 4.49141 23.4657C5.01576 25.0958 6.03596 26.5215 7.40962 27.5439C8.78328 28.5664 10.4419 29.1344 12.1539 29.1688C9.24737 31.4519 5.65696 32.6903 1.96094 32.6844C1.30548 32.6834 0.650665 32.6432 0 32.5641C3.75476 34.973 8.12255 36.2524 12.5836 36.25Z" fill="#BF3C30"/>
</g>
<defs>
<clipPath id="clip0_233_427">
<rect width="40" height="40" fill="white"/>
</clipPath>
</defs>
</svg>
